<svg width="31" height="30" viewBox="0 0 31 30" fill="none" xmlns="http://www.w3.org/2000/svg">
<path d="M21.4995 18L14.4995 11M24.4995 26H11.4995M14.4368 25.0628L23.1054 16.3941C24.2935 15.2061 24.8875 14.6121 25.1101 13.9271C25.3058 13.3246 25.3058 12.6755 25.1101 12.073C24.8875 11.388 24.2935 10.794 23.1054 9.60592L22.8937 9.39415C21.7056 8.2061 21.1116 7.61207 20.4266 7.38951C19.8241 7.19373 19.175 7.19373 18.5725 7.38951C17.8875 7.61207 17.2935 8.2061 16.1054 9.39415L7.89366 17.6059C6.70561 18.794 6.11158 19.388 5.88902 20.073C5.69324 20.6755 5.69324 21.3246 5.88902 21.9271C6.11158 22.6121 6.70561 23.2061 7.89366 24.3941L8.56229 25.0628C8.90819 25.4087 9.08114 25.5816 9.28298 25.7053C9.46192 25.815 9.65701 25.8958 9.86108 25.9448C10.0913 26 10.3358 26 10.825 26H12.1741C12.6632 26 12.9078 26 13.138 25.9448C13.3421 25.8958 13.5372 25.815 13.7161 25.7053C13.918 25.5816 14.0909 25.4087 14.4368 25.0628Z" stroke="#ACB1C9" stroke-width="2" stroke-linecap="round" stroke-linejoin="round"/>
</svg>
