<svg width="30" height="30" viewBox="0 0 30 30" fill="none" xmlns="http://www.w3.org/2000/svg">
<path d="M22 9H8C7.44772 9 7 9.44772 7 10V24C7 24.5523 7.44772 25 8 25H16.5858C16.851 25 17.1054 24.8946 17.2929 24.7071L22.7071 19.2929C22.8946 19.1054 23 18.851 23 18.5858V10C23 9.44772 22.5523 9 22 9Z" stroke="#ACB1C9" stroke-width="2" stroke-linecap="round" stroke-linejoin="round"/>
<path d="M23 18H17C16.4477 18 16 18.4477 16 19V25" stroke="#ACB1C9" stroke-width="2" stroke-linecap="round" stroke-linejoin="round"/>
<rect x="11" width="19" height="12" rx="6" fill="#555867"/>
<path d="M20.5703 6.17188C20.5742 8 19.457 9.07812 17.9766 9.07812C16.4883 9.07812 15.3789 7.99609 15.3828 6.17188C15.3789 4.34375 16.4883 3.26562 17.9766 3.26562C19.457 3.26562 20.5742 4.34375 20.5703 6.17188ZM16.4062 6.17188C16.4023 7.46484 17.0547 8.16406 17.9766 8.16406C18.9023 8.16406 19.5508 7.46484 19.5469 6.17188C19.5508 4.87891 18.9023 4.17969 17.9766 4.17969C17.0547 4.17969 16.4023 4.87891 16.4062 6.17188ZM22.3417 6.51562V9H21.3417V4.75781H22.2948V5.47656H22.3495C22.5409 5.00391 22.9745 4.70312 23.6073 4.70312C24.4862 4.70312 25.0643 5.28125 25.0604 6.29688V9H24.0683V6.45312C24.0683 5.88281 23.7597 5.54297 23.2401 5.54688C22.7128 5.54297 22.3417 5.89844 22.3417 6.51562Z" fill="white"/>
</svg>
