<svg width="20" height="24" viewBox="0 0 20 24" fill="none" xmlns="http://www.w3.org/2000/svg">
<g id="Group">
<path id="Vector" fill-rule="evenodd" clip-rule="evenodd" d="M18.7502 0.333252H1.25016C0.940744 0.333252 0.643997 0.456168 0.425205 0.674961C0.206412 0.893753 0.0834961 1.1905 0.0834961 1.49992V22.4999C0.0834961 22.8093 0.206412 23.1061 0.425205 23.3249C0.643997 23.5437 0.940744 23.6666 1.25016 23.6666H11.1668V17.8333C11.1668 16.2256 12.4758 14.9166 14.0835 14.9166H19.9168V1.49992C19.9168 1.1905 19.7939 0.893753 19.5751 0.674961C19.3563 0.456168 19.0596 0.333252 18.7502 0.333252Z" fill="#ACB1C9"/>
<path id="Vector_2" fill-rule="evenodd" clip-rule="evenodd" d="M12.917 17.8332V23.6665L19.917 16.6665H14.0837C13.7742 16.6665 13.4775 16.7894 13.2587 17.0082C13.0399 17.227 12.917 17.5238 12.917 17.8332Z" fill="#ACB1C9"/>
</g>
</svg>
