<svg width="32" height="30" viewBox="0 0 32 30" fill="none" xmlns="http://www.w3.org/2000/svg">
<path d="M12 26H18" stroke="#ACB1C9" stroke-width="2" stroke-linecap="round" stroke-linejoin="round"/>
<path d="M15 8C11.6863 8 9 10.6863 9 14C9 15.3923 9.47426 16.6739 10.27 17.692C11.1494 18.8169 12 20.0766 12 21.5045V22.0002C12 22.5525 12.4477 23.0002 13 23.0002H17C17.5523 23.0002 18 22.5525 18 22.0002V21.5045C18 20.0766 18.8506 18.8169 19.73 17.692C20.5257 16.6739 21 15.3923 21 14C21 10.6863 18.3137 8 15 8Z" stroke="#ACB1C9" stroke-width="2" stroke-linecap="round" stroke-linejoin="round"/>
<rect x="8.5" width="23" height="12" rx="6" fill="#555867"/>
<path d="M13.7422 9H12.6562L14.6484 3.34375H15.8984L17.8984 9H16.8125L16.3398 7.60156H14.2109L13.7422 9ZM14.4844 6.78125H16.0664L15.2969 4.5H15.25L14.4844 6.78125ZM19.8808 9.07812C18.8847 9.07422 18.1308 8.27734 18.1308 6.88281C18.1308 5.46875 18.9042 4.70312 19.8886 4.70312C20.6347 4.70312 20.9472 5.15234 21.0995 5.45312H21.1386V3.34375H22.1308V9H21.1542V8.32812H21.0995C20.9393 8.64062 20.6151 9.07422 19.8808 9.07812ZM19.1464 6.875C19.1464 7.67578 19.4979 8.25781 20.1542 8.25781C20.7987 8.25781 21.162 7.70312 21.162 6.875C21.162 6.05078 20.8026 5.51953 20.1542 5.51562C19.4901 5.51953 19.1464 6.08594 19.1464 6.875ZM24.6287 9.07812C23.6326 9.07422 22.8787 8.27734 22.8787 6.88281C22.8787 5.46875 23.6521 4.70312 24.6365 4.70312C25.3826 4.70312 25.6951 5.15234 25.8474 5.45312H25.8865V3.34375H26.8787V9H25.9021V8.32812H25.8474C25.6873 8.64062 25.3631 9.07422 24.6287 9.07812ZM23.8943 6.875C23.8943 7.67578 24.2459 8.25781 24.9021 8.25781C25.5467 8.25781 25.9099 7.70312 25.9099 6.875C25.9099 6.05078 25.5506 5.51953 24.9021 5.51562C24.2381 5.51953 23.8943 6.08594 23.8943 6.875Z" fill="white"/>
</svg>
