<svg width="30" height="30" viewBox="0 0 30 30" fill="none" xmlns="http://www.w3.org/2000/svg">
<path d="M12 26H18" stroke="#ACB1C9" stroke-width="2" stroke-linecap="round" stroke-linejoin="round"/>
<path d="M15 8C11.6863 8 9 10.6863 9 14C9 15.3923 9.47426 16.6739 10.27 17.692C11.1494 18.8169 12 20.0766 12 21.5045V22.0002C12 22.5525 12.4477 23.0002 13 23.0002H17C17.5523 23.0002 18 22.5525 18 22.0002V21.5045C18 20.0766 18.8506 18.8169 19.73 17.692C20.5257 16.6739 21 15.3923 21 14C21 10.6863 18.3137 8 15 8Z" stroke="#ACB1C9" stroke-width="2" stroke-linecap="round" stroke-linejoin="round"/>
<rect x="14" width="12" height="12" rx="6" fill="#555867"/>
<path d="M20.9297 9H19.9062V4.33594H19.875L18.5547 5.17969V4.25L19.9531 3.34375H20.9297V9Z" fill="white"/>
</svg>
