<svg width="30" height="30" viewBox="0 0 30 30" fill="none" xmlns="http://www.w3.org/2000/svg">
<path d="M12 26H18" stroke="#ACB1C9" stroke-width="2" stroke-linecap="round" stroke-linejoin="round"/>
<path d="M15 8C11.6863 8 9 10.6863 9 14C9 15.3923 9.47426 16.6739 10.27 17.692C11.1494 18.8169 12 20.0766 12 21.5045V22.0002C12 22.5525 12.4477 23.0002 13 23.0002H17C17.5523 23.0002 18 22.5525 18 22.0002V21.5045C18 20.0766 18.8506 18.8169 19.73 17.692C20.5257 16.6739 21 15.3923 21 14C21 10.6863 18.3137 8 15 8Z" stroke="#ACB1C9" stroke-width="2" stroke-linecap="round" stroke-linejoin="round"/>
<rect x="10" width="20" height="12" rx="6" fill="#555867"/>
<path d="M14.6456 9L16.6378 3.34375H17.8878L19.8878 9H18.8018L18.3292 7.60156H16.2003L15.7315 9H14.6456ZM18.0557 6.78125L17.2862 4.5H17.2393L16.4737 6.78125H18.0557ZM20.4716 9V3.34375H22.4248C22.9846 3.34375 23.4677 3.45703 23.874 3.68359C24.2802 3.90755 24.5914 4.23177 24.8076 4.65625C25.0263 5.07812 25.1357 5.58073 25.1357 6.16406C25.1357 6.75 25.0263 7.25651 24.8076 7.68359C24.5888 8.10807 24.2737 8.43359 23.8623 8.66016C23.4508 8.88672 22.9612 9 22.3935 9H20.4716ZM22.3388 8.11719C23.5263 8.1224 24.1201 7.47135 24.1201 6.16406C24.1201 5.51823 23.9729 5.03385 23.6787 4.71094C23.3844 4.38542 22.9482 4.22396 22.3701 4.22656H21.4873V8.11719H22.3388Z" fill="white"/>
</svg>
