<svg width="30" height="30" viewBox="0 0 30 30" fill="none" xmlns="http://www.w3.org/2000/svg">
<path d="M12 26H18" stroke="#ACB1C9" stroke-width="2" stroke-linecap="round" stroke-linejoin="round"/>
<path d="M15 8C11.6863 8 9 10.6863 9 14C9 15.3923 9.47426 16.6739 10.27 17.692C11.1494 18.8169 12 20.0766 12 21.5045V22.0002C12 22.5525 12.4477 23.0002 13 23.0002H17C17.5523 23.0002 18 22.5525 18 22.0002V21.5045C18 20.0766 18.8506 18.8169 19.73 17.692C20.5257 16.6739 21 15.3923 21 14C21 10.6863 18.3137 8 15 8Z" stroke="#ACB1C9" stroke-width="2" stroke-linecap="round" stroke-linejoin="round"/>
<rect x="13.5" width="13" height="12" rx="6" fill="#555867"/>
<path d="M18.0586 8.26562L20.0586 6.33594C20.2747 6.11979 20.4414 5.94271 20.5586 5.80469C20.6784 5.66406 20.7695 5.52604 20.832 5.39062C20.8945 5.2526 20.9258 5.10677 20.9258 4.95312C20.9258 4.78125 20.8828 4.63021 20.7969 4.5C20.7135 4.36979 20.5977 4.26953 20.4492 4.19922C20.3034 4.12891 20.1393 4.09375 19.957 4.09375C19.7643 4.09375 19.5951 4.13281 19.4492 4.21094C19.306 4.28646 19.1953 4.39453 19.1172 4.53516C19.0417 4.67578 19.0039 4.84115 19.0039 5.03125H18.0352C18.0352 4.67969 18.1159 4.37109 18.2773 4.10547C18.4414 3.83724 18.6693 3.63021 18.9609 3.48438C19.2552 3.33854 19.5898 3.26562 19.9648 3.26562C20.3451 3.26562 20.681 3.33594 20.9727 3.47656C21.2669 3.61719 21.4948 3.8125 21.6562 4.0625C21.8203 4.3099 21.9023 4.59115 21.9023 4.90625C21.8997 5.125 21.8568 5.33594 21.7734 5.53906C21.6901 5.73958 21.5469 5.96354 21.3438 6.21094C21.1406 6.45833 20.8529 6.75781 20.4805 7.10938L19.4727 8.10938V8.14844H21.9883V9H18.0586V8.26562Z" fill="white"/>
</svg>
