<svg width="30" height="30" viewBox="0 0 30 30" fill="none" xmlns="http://www.w3.org/2000/svg">
<path d="M12 26H18" stroke="#ACB1C9" stroke-width="2" stroke-linecap="round" stroke-linejoin="round"/>
<path d="M15 8C11.6863 8 9 10.6863 9 14C9 15.3923 9.47426 16.6739 10.27 17.692C11.1494 18.8169 12 20.0766 12 21.5045V22.0002C12 22.5525 12.4477 23.0002 13 23.0002H17C17.5523 23.0002 18 22.5525 18 22.0002V21.5045C18 20.0766 18.8506 18.8169 19.73 17.692C20.5257 16.6739 21 15.3923 21 14C21 10.6863 18.3137 8 15 8Z" stroke="#ACB1C9" stroke-width="2" stroke-linecap="round" stroke-linejoin="round"/>
<rect x="13" width="14" height="12" rx="6" fill="#555867"/>
<path d="M19.9961 9.07812C19.5977 9.07812 19.2409 9.01042 18.9258 8.875C18.6107 8.73958 18.3633 8.54948 18.1836 8.30469C18.0039 8.0599 17.9102 7.78125 17.9023 7.46875H18.9258C18.9336 7.61719 18.9857 7.7487 19.082 7.86328C19.1784 7.97786 19.306 8.06641 19.4648 8.12891C19.6237 8.1888 19.8008 8.21875 19.9961 8.21875C20.2018 8.21875 20.3854 8.18359 20.5469 8.11328C20.7109 8.04297 20.8385 7.94401 20.9297 7.81641C21.0208 7.6888 21.0664 7.54167 21.0664 7.375C21.0664 7.20573 21.0195 7.05599 20.9258 6.92578C20.832 6.79297 20.6966 6.6888 20.5195 6.61328C20.3424 6.53776 20.1341 6.5 19.8945 6.5H19.3867V5.71875H19.8945C20.0924 5.71875 20.2682 5.6849 20.4219 5.61719C20.5781 5.54688 20.6979 5.44922 20.7812 5.32422C20.8672 5.19661 20.9102 5.05208 20.9102 4.89062C20.9102 4.73438 20.8724 4.59635 20.7969 4.47656C20.724 4.35417 20.6185 4.26042 20.4805 4.19531C20.3451 4.1276 20.1862 4.09375 20.0039 4.09375C19.8268 4.09375 19.6615 4.1263 19.5078 4.19141C19.3568 4.25391 19.2344 4.34375 19.1406 4.46094C19.0495 4.57812 19.0013 4.71354 18.9961 4.86719H18.0195C18.0273 4.55729 18.1198 4.28125 18.2969 4.03906C18.474 3.79427 18.7122 3.60417 19.0117 3.46875C19.3112 3.33333 19.6445 3.26562 20.0117 3.26562C20.3841 3.26562 20.7135 3.33594 21 3.47656C21.2865 3.61458 21.5078 3.80339 21.6641 4.04297C21.8203 4.28255 21.8971 4.54688 21.8945 4.83594C21.8971 5.04427 21.8555 5.23307 21.7695 5.40234C21.6836 5.56901 21.5625 5.70833 21.4062 5.82031C21.25 5.93229 21.069 6.01042 20.8633 6.05469V6.10156C21.1263 6.13542 21.3516 6.21224 21.5391 6.33203C21.7266 6.45182 21.8685 6.60547 21.9648 6.79297C22.0612 6.98047 22.1081 7.19271 22.1055 7.42969C22.1081 7.74479 22.0182 8.02734 21.8359 8.27734C21.6562 8.52734 21.4049 8.72396 21.082 8.86719C20.7617 9.00781 20.3997 9.07812 19.9961 9.07812Z" fill="white"/>
</svg>
