<svg width="29" height="28" viewBox="0 0 29 28" fill="none" xmlns="http://www.w3.org/2000/svg">
<g id="icon-pencil-mono">
<path id="Vector" fill-rule="evenodd" clip-rule="evenodd" d="M14.8907 6.36298L4.31837 16.9353L2.87637 22.3136L1.92787 25.8568C1.90152 25.9558 1.90165 26.06 1.92825 26.1589C1.95484 26.2578 2.00697 26.348 2.0794 26.4205C2.15183 26.4929 2.24203 26.545 2.34095 26.5716C2.43987 26.5982 2.54404 26.5983 2.64303 26.572L6.18387 25.6223L11.5634 24.1803H11.5645L22.1369 13.608L14.8919 6.36298H14.8907ZM26.5084 7.58798L20.913 1.99148C20.8048 1.88305 20.6762 1.79702 20.5347 1.73832C20.3931 1.67963 20.2414 1.64941 20.0882 1.64941C19.935 1.64941 19.7833 1.67963 19.6417 1.73832C19.5002 1.79702 19.3716 1.88305 19.2634 1.99148L16.3759 4.87782L23.622 12.124L26.5084 9.23648C26.6168 9.12823 26.7028 8.99966 26.7615 8.85812C26.8202 8.71659 26.8504 8.56487 26.8504 8.41165C26.8504 8.25843 26.8202 8.10671 26.7615 7.96517C26.7028 7.82364 26.6168 7.69507 26.5084 7.58682" fill="#ACB1C9"/>
</g>
</svg>
