<svg width="28" height="28" viewBox="0 0 28 28" fill="none" xmlns="http://www.w3.org/2000/svg">
<g id="icon-lock-mono">
<path id="Vector" fill-rule="evenodd" clip-rule="evenodd" d="M15.05 16.4209V18.9864C15.05 19.2648 14.9394 19.5319 14.7425 19.7288C14.5455 19.9257 14.2785 20.0364 14 20.0364C13.7215 20.0364 13.4545 19.9257 13.2575 19.7288C13.0606 19.5319 12.95 19.2648 12.95 18.9864V16.4209C12.6315 16.238 12.3669 15.9745 12.1825 15.6568C11.9982 15.3392 11.9008 14.9786 11.9 14.6114C11.9129 14.0631 12.1398 13.5417 12.5321 13.1585C12.9244 12.7754 13.451 12.5609 13.9994 12.5609C14.5478 12.5609 15.0744 12.7754 15.4667 13.1585C15.859 13.5417 16.0859 14.0631 16.0988 14.6114C16.0988 15.3872 15.6742 16.0569 15.05 16.4209ZM10.29 7.58221C10.2912 6.59874 10.6825 5.65592 11.3781 4.96062C12.0736 4.26531 13.0165 3.8743 14 3.87337C14.9834 3.8743 15.9262 4.26535 16.6215 4.96069C17.3169 5.65603 17.7079 6.59885 17.7088 7.58221H10.29ZM21.6988 7.58221H20.0422C20.0406 5.9802 19.4035 4.44425 18.2708 3.31145C17.138 2.17866 15.602 1.54158 14 1.54004C12.3979 1.54158 10.8618 2.17862 9.72884 3.31138C8.59586 4.44414 7.95852 5.98009 7.95667 7.58221H6.3C5.55739 7.58221 4.8452 7.8772 4.3201 8.40231C3.795 8.92741 3.5 9.6396 3.5 10.3822V22.2822C3.5 23.0248 3.795 23.737 4.3201 24.2621C4.8452 24.7872 5.55739 25.0822 6.3 25.0822H21.6988C22.0666 25.0824 22.4309 25.01 22.7707 24.8694C23.1106 24.7288 23.4194 24.5225 23.6795 24.2625C23.9396 24.0025 24.146 23.6938 24.2868 23.354C24.4275 23.0142 24.5 22.65 24.5 22.2822V10.3822C24.5 10.0144 24.4275 9.65021 24.2868 9.31042C24.146 8.97063 23.9396 8.66191 23.6795 8.40189C23.4194 8.14187 23.1106 7.93565 22.7707 7.79501C22.4309 7.65436 22.0666 7.58205 21.6988 7.58221Z" fill="#ACB1C9"/>
</g>
</svg>
