<svg width="24" height="24" viewBox="0 0 24 24" fill="none" xmlns="http://www.w3.org/2000/svg">
<path fill-rule="evenodd" clip-rule="evenodd" d="M23 12C23 18.0751 18.0751 23 12 23C5.92487 23 1 18.0751 1 12C1 5.92487 5.92487 1 12 1C18.0751 1 23 5.92487 23 12ZM9 9C9 8.44772 9.44771 8 10 8C10.5523 8 11 8.44772 11 9V15C11 15.5523 10.5523 16 10 16C9.44771 16 9 15.5523 9 15V9ZM14 8C13.4477 8 13 8.44772 13 9V15C13 15.5523 13.4477 16 14 16C14.5523 16 15 15.5523 15 15V9C15 8.44772 14.5523 8 14 8Z" fill="#C9CEE6"/>
</svg>
